<?xml version="1.0" encoding="UTF-8" standalone="no"?>
<!-- Created with Inkscape (http://www.inkscape.org/) -->

<svg
   version="1.1"
   id="svg228"
   width="717.91095"
   height="922.19318"
   viewBox="0 0 717.91095 922.19318"
   sodipodi:docname="4 Free Printable Head Templates.jpeg"
   xml:space="preserve"
   inkscape:export-filename="../../../tmp/head.svg"
   inkscape:export-xdpi="96"
   inkscape:export-ydpi="96"
   xmlns:inkscape="http://www.inkscape.org/namespaces/inkscape"
   xmlns:sodipodi="http://sodipodi.sourceforge.net/DTD/sodipodi-0.dtd"
   xmlns="http://www.w3.org/2000/svg"
   xmlns:svg="http://www.w3.org/2000/svg"><defs
     id="defs232" /><sodipodi:namedview
     id="namedview230"
     pagecolor="#ffffff"
     bordercolor="#000000"
     borderopacity="0.25"
     inkscape:showpageshadow="2"
     inkscape:pageopacity="0.0"
     inkscape:pagecheckerboard="0"
     inkscape:deskcolor="#d1d1d1"
     showgrid="false" /><g
     inkscape:groupmode="layer"
     inkscape:label="Image"
     id="g234"
     transform="translate(-128.70012,-13.806824)"><path
       style="fill:#000000;stroke-width:1.33333"
       d="m 144.64482,934.70202 c 0.44122,-0.71389 22.22663,-11.9562 48.41203,-24.98289 26.1854,-13.02668 51.89561,-26.54306 57.13382,-30.03636 18.1377,-12.09588 30.88502,-29.18247 37.35022,-50.06447 3.02152,-9.75924 3.61272,-14.17844 3.69477,-27.61828 0.0893,-14.64479 -0.20227,-16.63937 -3.44341,-23.54859 -2.04152,-4.35197 -7.47188,-11.69217 -12.82339,-17.33333 -19.96216,-21.04268 -30.15992,-35.23554 -41.00393,-57.0677 -9.33615,-18.79641 -13.67492,-33.61145 -22.21962,-75.8705 -4.97753,-24.61709 -4.6581,-24.17561 -17.49878,-24.18487 -8.21601,-0.005 -14.00233,-3.0854 -17.89617,-9.52432 -3.04048,-5.0278 -5.14575,-11.00986 -14.94674,-42.4707 -11.19658,-35.94065 -11.72616,-37.71602 -13.32358,-44.66666 -0.8427,-3.66667 -5.5396,-19.26667 -10.43758,-34.66667 -8.7224,-27.42458 -8.90614,-28.30142 -8.94061,-42.66667 -0.0313,-13.0366 0.33528,-15.39991 3.29815,-21.26404 4.66292,-9.22891 9.04736,-12.08441 18.43529,-12.00657 6.03016,0.05 8.71972,0.83337 13.25848,3.86177 3.13157,2.08949 6.09376,3.39908 6.58265,2.9102 0.48888,-0.48889 -0.69853,-8.22669 -2.63872,-17.19512 -5.43253,-25.1118 -6.90845,-39.49632 -6.80334,-66.30624 0.24589,-62.72171 14.77208,-116.04035 44.44673,-163.14262 4.48862,-7.12475 8.97865,-13.98233 9.97782,-15.23908 27.18026,-34.18654 49.83362,-54.354375 81.50623,-72.563362 68.31946,-39.277727 147.3857,-59.4281311 213.93355,-54.521982 24.4444,1.802129 42.85887,4.66923 65.16187,10.145597 30.5439,7.49987 42.2105,11.452761 68.13942,23.087066 22.1462,9.937002 42.2302,21.961355 61.3218,36.713561 13.47895,10.41527 35.06719,31.05697 44.01153,42.08186 2.56667,3.16369 5.28799,6.43169 6.04738,7.26223 0.7594,0.83054 3.4594,4.51006 6,8.17672 2.54061,3.66667 4.9249,6.96667 5.29844,7.33334 1.93848,1.90286 8.88445,13.6039 14.73781,24.82701 20.65105,39.59588 29.86223,80.93255 31.458,141.17299 0.62363,23.54215 0.31179,33.15026 -1.57956,48.66667 -3.54961,29.1208 -4.68824,25.86897 9.37127,26.76345 14.54041,0.92508 17.64744,2.3136 22.5629,10.0833 3.5708,5.64421 3.75868,6.64377 3.05447,16.25036 -2.11453,28.84566 -32.34515,148.24635 -43.86899,173.26761 -3.22674,7.00612 -9.36952,13.32207 -14.11524,14.51316 -2.98724,0.74975 -8.52608,0.13856 -14.41196,-1.59032 -2.59381,-0.76188 -3.02244,0.32215 -6.43769,16.28145 -4.78441,22.35729 -11.75903,47.32277 -17.62237,63.07888 -10.02578,26.9415 -27.27687,56.14508 -42.65413,72.20722 -11.79815,12.32362 -14.09328,18.09989 -14.75904,37.1449 -1.00122,28.64109 5.39706,53.36187 19.3058,74.59113 2.66973,4.07488 5.17632,7.70887 5.57018,8.07554 0.39388,0.36666 3.25434,4.00874 6.35658,8.09352 8.59593,11.31841 29.31877,29.38959 47.01949,41.00292 4.03333,2.64625 7.63333,5.19228 8,5.65785 0.36666,0.46558 2.01666,1.55743 3.66666,2.42635 1.65,0.86892 3,2.23085 3,3.02652 0,2.13433 -15.24641,0.7364 -17.59921,-1.61364 -1.061,-1.05977 -4.22481,-3.72685 -7.03069,-5.92685 -47.7778,-37.4611 -62.08429,-56.22531 -72.1772,-94.66667 -1.9032,-7.2488 -2.45561,-14.32131 -2.47339,-31.66667 -0.0167,-16.23572 -0.45169,-22.33333 -1.59342,-22.33333 -0.86379,0 -1.77052,0.45 -2.01498,1 -0.24444,0.55 -4.94444,4.9 -10.44444,9.66666 -5.5,4.76667 -10.3,8.97008 -10.66666,9.34092 -0.36667,0.37084 -2.86474,2.31176 -5.55126,4.31316 -2.68652,2.0014 -5.68652,4.39799 -6.66666,5.32575 -5.14768,4.87257 -30.4636,22.818 -46.97694,33.30003 -31.60921,20.06433 -56.3321,30.7002 -80.13847,34.47584 -14.52788,2.30408 -54.85718,2.38324 -66.66667,0.1308 -8.76057,-1.67088 -37.87233,-11.5842 -39.33333,-13.39404 -0.36667,-0.45422 -2.76667,-1.96362 -5.33333,-3.35423 -5.48431,-2.97139 -8.29927,-4.82781 -54.66667,-36.05187 -19.43333,-13.08652 -40.22672,-27.30953 -46.20752,-31.6067 -12.13402,-8.71823 -15.85572,-9.90643 -13.75948,-4.39291 2.08415,5.48171 1.55488,30.03237 -0.85093,39.47217 -7.15357,28.06871 -21.42793,48.90974 -43.18207,63.04719 -11.13825,7.23847 -14.25816,8.87823 -44.66666,23.47575 -13.93333,6.68865 -30.20011,14.50649 -36.1484,17.37297 -8.99813,4.33622 -12.20335,5.21179 -19.07868,5.21179 -5.0196,0 -7.94871,-0.50955 -7.46143,-1.298 z m 375.60335,-64.0756 c 18.46458,-2.77347 28.68663,-5.78481 42.67998,-12.57324 11.54677,-5.60155 23.7385,-12.96372 23.7385,-14.33488 0,-0.57839 0.62111,-1.05161 1.38023,-1.05161 0.75913,0 6.69373,-3.9 13.188,-8.66667 6.49428,-4.76667 12.21874,-8.66667 12.72105,-8.66667 0.81899,0 16.40628,-11.4703 18.04405,-13.27818 0.36667,-0.40475 5.16667,-4.17274 10.66667,-8.37331 12.79987,-9.77579 20.96712,-16.30416 26.00391,-20.78587 2.20214,-1.95945 7.30214,-6.25014 11.33333,-9.53486 17.28241,-14.0822 37.03373,-37.32977 46.46885,-54.69445 0.99615,-1.83333 3.58344,-6.93333 5.74955,-11.33333 2.1661,-4.4 4.54032,-9.10287 5.27604,-10.45081 1.4978,-2.74423 15.85421,-48.53208 18.46214,-58.88252 0.92386,-3.66667 3.66003,-13.26667 6.08038,-21.33334 2.42034,-8.06667 4.90129,-16.95055 5.51321,-19.74195 l 1.11259,-5.07528 5.33333,4.03819 c 7.48356,5.66625 14.18825,5.6202 19.56384,-0.13439 7.29024,-7.80422 8.08133,-10.02618 20.56219,-57.75324 2.49301,-9.53333 7.00005,-27.83333 10.01565,-40.66666 3.01559,-12.83334 7.16287,-29.33334 9.21617,-36.66667 5.57328,-19.9048 6.64215,-26.26622 6.64215,-39.53079 0,-14.21239 -2.05963,-19.72763 -8.86708,-23.74412 -7.83848,-4.62483 -14.38895,-3.70297 -23.27067,3.27491 -4.20037,3.3 -7.86885,6 -8.15218,6 -0.28332,0 -0.0933,-3.75 0.42218,-8.33334 5.27683,-46.91377 5.44636,-49.93001 4.77751,-85 -0.51176,-26.83344 -1.34195,-39.45181 -3.451,-52.45351 -3.91073,-24.10842 -9.19681,-44.79573 -14.70445,-57.54649 -0.63352,-1.46667 -1.91892,-4.76667 -2.85644,-7.33334 -4.89982,-13.4143 -21.21454,-43.69253 -25.14526,-46.66666 -0.4846,-0.36667 -2.33822,-2.76667 -4.11917,-5.33334 -6.81417,-9.82046 -23.98694,-27.62001 -39.93452,-41.39204 C 709.21664,97.873585 704.02061,93.34683 703.15217,92.548508 699.96157,89.615526 671.09145,70.83069 663.33332,66.639695 649.93218,59.400312 649.01254,58.940892 638.21989,54.093789 625.88274,48.553044 596.60872,39.148797 573.5716,33.325601 515.7752,18.71615 451.17904,19.867096 394.66666,36.51325 c -61.60215,18.145382 -99.55459,37.930866 -141.18979,73.60549 -40.39688,34.61358 -67.05803,83.17342 -79.36222,144.54793 -4.45933,22.2436 -5.44671,34.5106 -5.36599,66.66667 0.0857,34.1487 1.23122,45.92264 7.79324,80.10256 1.74904,9.11026 3.0071,16.74964 2.79568,16.9764 -0.21141,0.22676 -4.79886,-2.53661 -10.19432,-6.14084 -12.87674,-8.60178 -15.22156,-9.76641 -19.93308,-9.90037 -9.82977,-0.27948 -15.87685,8.6018 -15.87685,23.31816 0,9.18012 0.82403,13.08596 7.94188,37.64409 5.59973,19.32034 7.15384,24.96331 12.11779,44.00001 2.29466,8.8 4.67028,17.5 5.27914,19.33333 0.60888,1.83333 2.98856,9.63333 5.2882,17.33333 2.29963,7.7 4.69215,15.2 5.3167,16.66667 0.62454,1.46667 3.10212,7.76667 5.50572,14 4.28836,11.12112 9.13177,20.10501 12.83624,23.80948 1.02785,1.02785 4.49573,2.16492 7.70637,2.52681 4.61373,0.52003 6.60212,0.0565 9.4845,-2.21073 2.00584,-1.57779 4.1042,-2.40149 4.66304,-1.83047 0.55883,0.57103 3.78715,14.83824 7.17403,31.70491 7.02044,34.96179 10.62824,47.87006 18.16855,65.00486 4.68718,10.65129 15.08704,29.81098 17.18597,31.66181 0.41583,0.36667 3.68183,4.86667 7.25779,10 10.81522,15.52541 39.91433,43.11564 61.26684,58.08998 3.58934,2.51718 9.28934,6.57176 12.66666,9.01017 3.37732,2.43843 11.24057,7.76847 17.47391,11.84455 6.23333,4.07608 13.73333,8.97932 16.66666,10.89609 2.93334,1.91677 5.63334,3.79572 6,4.17544 3.32894,3.4474 44.48812,28.06111 56.74698,33.9354 23.81346,11.41112 49.27299,13.48403 90.16787,7.34144 z M 778.05274,560.93111 c 0.38461,-2.05458 1.84395,-9.55458 3.24295,-16.66667 4.04106,-20.54353 6.40829,-36.05308 7.36661,-48.26443 0.64679,-8.24162 1.81924,-13.15198 4.29788,-18 4.22313,-8.26011 19.00825,-31.12157 19.02645,-29.41965 0.008,0.68586 -3.24226,6.98586 -7.22134,14 -11.10195,19.56999 -12.36991,23.19083 -14.03755,40.08632 -1.685,17.07137 -6.57601,41.79537 -10.68252,54 -1.48048,4.4 -2.37709,6.31899 -1.99248,4.26443 z m -587.90838,-15.8588 c -3.31268,-14.96738 -4.72476,-28.2851 -4.76986,-44.98564 -0.0401,-14.85888 -0.16309,-15.48227 -4.83466,-24.50945 -2.63642,-5.09452 -7.45515,-13.76478 -10.7083,-19.26725 -5.96814,-10.09469 -7.17616,-14.48244 -1.977,-7.18089 1.54667,2.17209 2.81212,4.24633 2.81212,4.60944 0,0.3631 2.18286,3.87048 4.85079,7.79417 2.66793,3.92369 6.5074,10.73399 8.53216,15.13399 3.41805,7.42777 3.73772,9.62129 4.46919,30.66667 0.43329,12.46666 1.68286,28.02761 2.77684,34.57988 1.09396,6.55228 1.76745,12.13481 1.49662,12.40564 -0.27082,0.27082 -1.46238,-3.89014 -2.6479,-9.24656 z"
       id="path346" /><path
       style="fill:#000000;stroke-width:0.488489"
       d="m 469.28674,577.26703 c -4.22657,-1.53053 -5.51404,-2.32235 -11.10567,-6.83021 -7.06163,-5.6929 -7.88088,-6.21433 -12.56499,-7.99706 -3.09591,-1.17828 -3.79495,-1.59099 -2.7078,-1.59873 4.16545,-0.0296 9.99679,2.50702 15.96954,6.94667 8.41448,6.25463 12.16982,7.694 20.03089,7.67754 7.99505,-0.0166 12.67603,-1.61974 20.64851,-7.07119 5.36114,-3.66588 9.63257,-5.83216 13.56252,-6.87834 4.49197,-1.19577 5.32774,-0.76217 1.46172,0.75839 -4.61238,1.8141 -7.27866,3.38866 -12.1406,7.16958 -9.47008,7.36448 -13.79916,8.98321 -23.86299,8.92285 -5.2384,-0.0314 -6.87715,-0.22533 -9.29113,-1.0995 z m -28.18052,-5.92024 c -6.04853,-2.51319 -10.30704,-6.19461 -12.42363,-10.74005 -2.79929,-6.01159 -1.19512,-9.93619 10.67404,-26.11412 14.53945,-19.81764 17.93576,-29.95018 21.67151,-64.65482 0.4555,-4.23154 0.94085,-7.6937 1.07855,-7.6937 0.34465,0 -0.27155,14.68054 -0.89191,21.2493 -1.78812,18.93372 -4.55234,29.33328 -10.78046,40.55829 -2.84819,5.13334 -4.74986,7.96639 -13.47933,20.08113 -2.15596,2.99205 -4.43352,6.50104 -5.06126,7.79776 -2.98809,6.17258 -0.16247,11.59974 9.35791,17.97368 4.37302,2.92776 4.32837,3.4014 -0.14543,1.54253 z m 76.54101,0.31434 c 0.80601,-0.52782 2.35218,-1.50732 3.43595,-2.17668 3.30675,-2.0423 7.55121,-6.24784 8.80724,-8.72646 2.51374,-4.96065 1.35271,-8.60155 -5.79869,-18.18423 -8.75038,-11.72531 -14.49331,-21.18127 -17.1424,-28.22566 -2.86043,-7.60639 -5.16633,-19.16437 -6.12696,-30.71046 -0.5925,-7.12121 -0.8104,-19.89706 -0.34724,-20.36019 0.17557,-0.17558 0.32348,1.0913 0.32872,2.81526 0.007,2.71711 0.63065,9.15541 1.71965,17.78917 0.70933,5.62373 3.81808,19.73258 5.32293,24.15784 3.03907,8.93689 7.43205,16.49381 17.37525,29.88946 2.66401,3.58899 5.78264,8.35992 6.93026,10.60205 2.59557,5.07096 2.8555,8.61863 0.91041,12.42566 -2.38137,4.66086 -9.90753,10.20599 -15.41512,11.35753 l -1.46547,0.3064 z"
       id="path720" /><path
       style="fill:#000000;stroke-width:0.999999"
       d="m 459.58033,733.93762 c -17.1132,-2.13513 -40.51224,-11.86545 -64.00219,-26.61483 -15.17161,-9.5263 -32.26797,-22.0831 -31.58069,-23.19511 1.30279,-2.10796 45.999,-30.96771 58.58069,-37.8248 13.47238,-7.34248 18.41222,-8.63731 30.73635,-8.05663 8.36866,0.39428 12.27065,1.09051 17.53648,3.129 8.45608,3.27349 10.99286,3.2742 19.45434,0.004 8.907,-3.44081 24.24953,-4.40931 32.34346,-2.0417 10.22474,2.99093 26.51975,12.34405 57.42937,32.96375 7.15,4.76977 14.07466,9.51353 15.38812,10.54175 l 2.38814,1.8695 -7.63242,5.64446 c -29.91708,22.12471 -53.99308,34.95655 -77.19713,41.1439 -8.61442,2.29705 -12.35766,2.7004 -27.94671,3.01145 -9.9,0.19767 -21.37401,-0.0616 -25.49781,-0.57626 z m 48.4922,-8.93658 c 14.07576,-3.12484 27.60667,-8.7092 43.0056,-17.74881 7.95145,-4.66776 25.19562,-16.18258 26.38337,-17.61759 0.69853,-0.84397 -4.64904,-1.13953 -20.72092,-1.14531 -11.91432,-0.004 -28.18744,-0.60726 -36.16244,-1.34 -14.13073,-1.29826 -14.71647,-1.27392 -23,0.95668 -11.24203,3.02725 -22.36079,3.03057 -35.25227,0.0113 -9.36156,-2.19311 -10.283,-2.23299 -22.99999,-0.99519 -7.28626,0.70923 -23.03407,1.30889 -34.99514,1.33262 -11.96107,0.0227 -21.74857,0.36435 -21.75,0.75685 -0.003,0.90017 20.18101,14.21307 29.54003,19.48369 18.69487,10.52818 33.45438,15.63939 53.95737,18.68546 7.81199,1.16062 32.29917,-0.22639 41.99439,-2.37891 z M 497.94158,681.8205 c 8.32306,-2.22667 10.98184,-2.2173 36.63657,0.12926 13.58687,1.24264 41.06823,1.28984 42.99164,0.0737 1.82936,-1.15653 1.77611,-1.20525 -8.99165,-8.22659 -23.8975,-15.58288 -35.00871,-22.04406 -44.49999,-25.8768 -8.89539,-3.59214 -19.91477,-3.27477 -32.22105,0.92798 -5.07158,1.73201 -10.27467,3.14911 -11.56242,3.14911 -1.28775,0 -6.36328,-1.37722 -11.27895,-3.06048 -4.91568,-1.68328 -12.08759,-3.30818 -15.93759,-3.61092 -8.83308,-0.6946 -15.95599,1.54035 -30,9.41299 -12.23455,6.85833 -40.5,25.18753 -40.5,26.26292 0,0.42984 0.7118,1.05464 1.58178,1.38848 2.9687,1.13919 33.88678,0.56871 47.91822,-0.88418 16.97857,-1.75805 24.46274,-1.86508 28.1849,-0.40312 10.44118,4.10093 24.06249,4.36044 37.67854,0.71769 z"
       id="path885" /></g></svg>
